# xmcd
#
# Track frame offsets:
#	150
#	32913
#	59305
#	91586
#	121026
#	147002
#	185619
#	224239
#	247217
#	272160
#	302741
#
# Disc length: 4442 seconds
#
# Revision: 1
# Processed by: cddbd v1.5.2PL0 Copyright (c) Steve Scherf et al.
# Submitted via: audiograbber 1.83.01
#
DISCID=a311580b
DTITLE=Various Artist - Fierce Disco II [CD1)
DYEAR=2008
DGENRE=House
TTITLE0=Sunburst Band - Rough Times (Joey Negro Club Mix)
TTITLE1=Todd Terry Allstars - Get Down (Kenny Dope Main Mix)
TTITLE2=Verde - Angel In My Pocket (Extended 12" Mix)
TTITLE3=The Allstars ft. Jocelyn Brown - All About The Music (Bassmonkeys Remix
TTITLE3=)
TTITLE4=Groove Division - Now Or Never (Extended Vocal Mix)
TTITLE5=Buzzjunkies ft. Elesha - If You Love Me (Moto Blanco Mix)
TTITLE6=Love To Infinity - Keep Love Together (Moto Blanco Mix)
TTITLE7=Verde ft. Justine - Free Gay And Happy (Extended Vocal Mix)
TTITLE8=Loveshy - AM to PM (Club Mix)
TTITLE9=Tony Moran ft. Martha Wash - Work It Out (Soulshaker vs. Bassmonkeys Cl
TTITLE9=ub Mix)
TTITLE10=Kristine W. - The Boss (Love To Infinity's Love In The Club Mix)
EXTD=
EXTT0=
EXTT1=
EXTT2=
EXTT3=
EXTT4=
EXTT5=
EXTT6=
EXTT7=
EXTT8=
EXTT9=
EXTT10=
PLAYORDER=
